Coordinates
version=1
nRows=32
nColumns=22
inDegrees=yes

Units are S.I. units (second, meters, Newtons, ...)
If the header above contains a line with 'inDegrees', this indicates whether rotational values are in degrees (yes) or radians (no).

endheader
time	pelvis_tilt	pelvis_list	pelvis_rotation	pelvis_tx	pelvis_ty	pelvis_tz	hip_flexion_r	hip_adduction_r	hip_rotation_r	knee_angle_r	ankle_angle_r	subtalar_angle_r	hip_flexion_l	hip_adduction_l	hip_rotation_l	knee_angle_l	ankle_angle_l	subtalar_angle_l	lumbar_extension	lumbar_bending	lumbar_rotation
      2.70000000	      0.13350365	     -2.37426644	      0.90245037	     -0.99357600	      1.05378543	     -0.20599539	     21.54386555	      3.62841253	     -2.71216453	    -14.55113880	      5.82301175	      1.19924913	     -7.52996193	      0.25237819	      2.49287861	    -19.22119836	     20.04291450	     -0.48189287	     -8.44578833	      1.12434294	     -9.86711773
      2.71000000	      0.15229833	     -2.58793252	      1.18557649	     -0.98360759	      1.05359421	     -0.20552383	     21.52504087	      3.77246401	     -3.23115549	    -15.53708746	      5.04206873	      0.51497309	     -7.68681583	     -0.05419804	      2.81212300	    -19.98512575	     19.70582468	      0.07729885	     -8.28391319	      1.39880021	    -10.01704249
      2.72000000	      0.17139976	     -2.81900966	      1.45395248	     -0.97354234	      1.05365562	     -0.20498175	     21.46058719	      3.95798718	     -3.61064608	    -16.46298763	      4.33378300	     -0.16611589	     -7.77638096	     -0.37778243	      3.11765597	    -20.86221521	     19.22381933	      0.71589584	     -8.10880561	      1.69053049	    -10.15380236
      2.73000000	      0.19534119	     -3.05633354	      1.68454471	     -0.96339211	      1.05396415	     -0.20431023	     21.33857358	      4.19252737	     -3.80226938	    -17.29701044	      3.76460769	     -0.83128974	     -7.79765122	     -0.70283565	      3.40466333	    -21.86412304	     18.59533138	      1.45592867	     -7.92810739	      1.97765185	    -10.26669047
      2.74000000	      0.22401176	     -3.30376785	      1.90871358	     -0.95316497	      1.05450414	     -0.20357803	     21.15260927	      4.47096109	     -3.83470335	    -18.02008455	      3.32798685	     -1.42257543	     -7.73733676	     -1.03705375	      3.68945119	    -23.00306021	     17.82657331	      2.24292461	     -7.74028021	      2.27297322	    -10.38225687
      2.75000000	      0.26342788	     -3.51876990	      2.08339461	     -0.94285737	      1.05524810	     -0.20273472	     20.90555670	      4.76154874	     -3.71150678	    -18.65432312	      3.05482258	     -2.03290450	     -7.61021947	     -1.32716390	      3.95787685	    -24.26949159	     16.87971152	      3.19072322	     -7.55550788	      2.51977828	    -10.44888299
      2.76000000	      0.31732170	     -3.69783270	      2.23884040	     -0.93247643	      1.05616915	     -0.20184387	     20.58737523	      5.04227678	     -3.50240358	    -19.19544987	      2.93095920	     -2.59952136	     -7.40695400	     -1.57387182	      4.22738087	    -25.67547930	     15.74371353	      4.22342647	     -7.37686220	      2.71887909	    -10.49182254
      2.77000000	      0.38471976	     -3.82622630	      2.38819035	     -0.92205384	      1.05723697	     -0.20096467	     20.19907194	      5.28354477	     -3.25927549	    -19.64669581	      2.90920807	     -3.11742946	     -7.11765233	     -1.76051008	      4.50749548	    -27.22575904	     14.40057522	      5.32235492	     -7.20752195	      2.86189843	    -10.54257208
      2.78000000	      0.46587622	     -3.91234532	      2.52157854	     -0.91156919	      1.05841222	     -0.20006878	     19.74313017	      5.49198453	     -3.01491400	    -20.02445547	      3.04211370	     -3.60905314	     -6.75415366	     -1.89643547	      4.79597709	    -28.89530233	     12.83097328	      6.52161678	     -7.04498165	      2.95060687	    -10.55234033
      2.79000000	      0.56024547	     -3.94572699	      2.65783149	     -0.90108613	      1.05968355	     -0.19920297	     19.20410583	      5.64203163	     -2.81865870	    -20.29010825	      3.25442029	     -4.04114073	     -6.29746025	     -1.97464834	      5.08327531	    -30.69699355	     11.02880450	      7.73961114	     -6.89633164	      2.97555629	    -10.54322895
      2.80000000	      0.66514186	     -3.95606409	      2.79056422	     -0.89064070	      1.06100730	     -0.19836664	     18.60558828	      5.76258226	     -2.67807445	    -20.48112756	      3.55379298	     -4.43499410	     -5.75043886	     -2.02399409	      5.37031553	    -32.61194456	      9.01409382	      9.00263360	     -6.76349716	      2.97595132	    -10.50609478
      2.81000000	      0.77526476	     -3.94346497	      2.93417051	     -0.88028842	      1.06236069	     -0.19757641	     17.94290976	      5.84397302	     -2.62571036	    -20.56781606	      3.90636863	     -4.77228560	     -5.09483577	     -2.05114176	      5.64130670	    -34.64448747	      6.81213442	     10.26080524	     -6.64715259	      2.94911109	    -10.44273670
      2.82000000	      0.88680382	     -3.92259718	      3.09689110	     -0.87009444	      1.06369885	     -0.19684517	     17.23284840	      5.89600705	     -2.67623321	    -20.56339833	      4.30999486	     -5.04488463	     -4.31830263	     -2.07191010	      5.89832693	    -36.79735672	      4.47774222	     11.47208886	     -6.55257358	      2.91145853	    -10.36090610
      2.83000000	      0.99498637	     -3.92422974	      3.27217700	     -0.86009318	      1.06498108	     -0.19614678	     16.48847153	      5.95467881	     -2.81259045	    -20.47356489	      4.73238186	     -5.25556570	     -3.41097073	     -2.12735940	      6.10666769	    -39.06727773	      2.10270850	     12.63360944	     -6.47805931	      2.89778863	    -10.25109482
      2.84000000	      1.10388189	     -3.95490444	      3.45676961	     -0.85031371	      1.06618770	     -0.19546622	     15.71354387	      6.03117292	     -3.01695238	    -20.30729717	      5.16379899	     -5.39442977	     -2.37907780	     -2.22714448	      6.25876471	    -41.43940103	     -0.23567592	     13.65680537	     -6.43452907	      2.91274270	    -10.10921547
      2.85000000	      1.21490652	     -4.01949515	      3.65023528	     -0.84076033	      1.06729751	     -0.19481493	     14.91545722	      6.13209252	     -3.27912389	    -20.07691209	      5.59653333	     -5.47162412	     -1.22975166	     -2.38415075	      6.33699478	    -43.88964564	     -2.43296117	     14.49366612	     -6.42284533	      2.96582063	     -9.95380779
      2.86000000	      1.32918934	     -4.12833127	      3.81494703	     -0.83141352	      1.06831860	     -0.19410173	     14.09818796	      6.28850020	     -3.52718509	    -19.79256662	      6.00929514	     -5.50104400	      0.01151993	     -2.60898867	      6.33184679	    -46.36840905	     -4.41281123	     15.16180132	     -6.44550301	      3.05938701	     -9.72574972
      2.87000000	      1.45090693	     -4.26313951	      3.94791591	     -0.82225863	      1.06925713	     -0.19333115	     13.26274545	      6.48371788	     -3.74557486	    -19.46527487	      6.40757980	     -5.49411880	      1.32073524	     -2.88747135	      6.24234458	    -48.82807795	     -6.08000782	     15.64059239	     -6.50604340	      3.17350611	     -9.43509195
      2.88000000	      1.60710650	     -4.40572339	      4.03415831	     -0.81327592	      1.07019247	     -0.19247588	     12.37899551	      6.70738375	     -3.90356482	    -19.09518416	      6.75432234	     -5.47013487	      2.63686224	     -3.19975584	      6.07671144	    -51.19971972	     -7.39031158	     15.89205721	     -6.63690794	      3.28647389	     -9.08244916
      2.89000000	      1.71083249	     -4.57675247	      4.07876747	     -0.80444451	      1.07096533	     -0.19152909	     11.55791782	      6.97126669	     -4.02603803	    -18.71710228	      7.13055303	     -5.42078267	      4.05107244	     -3.57436481	      5.83391139	    -53.46922467	     -8.18594455	     15.94348378	     -6.72448487	      3.41715803	     -8.68633796
      2.90000000	      1.85744600	     -4.73631016	      4.07182482	     -0.79573672	      1.07180638	     -0.19048875	     10.68062050	      7.24710975	     -4.05494035	    -18.30632467	      7.41780344	     -5.37480164	      5.41344330	     -3.95467893	      5.55277457	    -55.54491997	     -8.57056627	     15.73596510	     -6.88419440	      3.52415155	     -8.22592620
      2.91000000	      1.94753548	     -4.85948940	      4.01561443	     -0.78715373	      1.07254842	     -0.18936248	      9.87117114	      7.49373249	     -4.02351312	    -17.90459472	      7.74554634	     -5.30019312	      6.82345703	     -4.30695232	      5.22382728	    -57.41361718	     -8.53542996	     14.89452575	     -6.99637793	      3.57015980	     -7.75594198
      2.92000000	      2.09293184	     -4.96150981	      3.91742180	     -0.77865648	      1.07338484	     -0.18818973	      9.00726600	      7.73162917	     -3.93821599	    -17.50820798	      8.03117120	     -5.24413222	      8.13247371	     -4.64522251	      4.87762477	    -59.02851499	     -8.11417661	     13.79555147	     -7.18805150	      3.58717177	     -7.22616957
      2.93000000	      2.22416015	     -5.02740065	      3.78513369	     -0.77021331	      1.07423241	     -0.18697839	      8.14239120	      7.93889996	     -3.78511246	    -17.08297704	      8.29675308	     -5.18783683	      9.40764351	     -4.94913375	      4.51342744	    -60.37768558	     -7.40046028	     12.45564745	     -7.36825621	      3.55428156	     -6.70837932
      2.94000000	      2.34880831	     -5.04693940	      3.63327574	     -0.76186470	      1.07508996	     -0.18579220	      7.29131794	      8.09544149	     -3.59214698	    -16.67118824	      8.54651349	     -5.13206928	     10.63334526	     -5.18856945	      4.16328364	    -61.45320956	     -6.46577231	     10.93711397	     -7.55263373	      3.46565266	     -6.19196722
      2.95000000	      2.46594972	     -5.01739198	      3.47550030	     -0.75360120	      1.07594175	     -0.18467602	      6.46379220	      8.19043881	     -3.39810944	    -16.28766068	      8.79076732	     -5.08061941	     11.80554362	     -5.35388479	      3.83711640	    -62.25071945	     -5.37963695	      9.36423546	     -7.73750072	      3.32294842	     -5.68619576
      2.96000000	      2.56349716	     -4.95456154	      3.30848257	     -0.74538871	      1.07676826	     -0.18362160	      5.65759339	      8.24231839	     -3.17992588	    -15.90418236	      9.02008143	     -5.03597430	     12.93108002	     -5.47014298	      3.51526092	    -62.76892755	     -4.20579692	      7.86944476	     -7.90183592	      3.14659271	     -5.21442006
      2.97000000	      2.64370198	     -4.85007706	      3.14311395	     -0.73723303	      1.07755656	     -0.18267360	      4.88137464	      8.23745643	     -2.96153526	    -15.54068113	      9.24679525	     -5.00189613	     14.00263369	     -5.51537440	      3.21550680	    -63.00803094	     -2.99038631	      6.47926642	     -8.05056051	      2.93090517	     -4.77808113
      2.98000000	      2.70172921	     -4.71291757	      2.96010384	     -0.72912033	      1.07828907	     -0.18180186	      4.13828104	      8.18890739	     -2.70388764	    -15.19551068	      9.47088307	     -4.97836683	     15.01847827	     -5.50677264	      2.91342365	    -62.97247908	     -1.77004119	      5.26593980	     -8.17666784	      2.68485833	     -4.35317741
      2.99000000	      2.75048824	     -4.52048256	      2.80814619	     -0.72104148	      1.07897068	     -0.18110831	      3.42895421	      8.06172183	     -2.51963789	    -14.89202841	      9.70852938	     -4.96868089	     15.96391306	     -5.40079422	      2.65257227	    -62.66215588	     -0.57851681	      4.16334825	     -8.29307889	      2.39034912	     -3.99130784
      3.00000000	      2.78065701	     -4.30109505	      2.65033220	     -0.71299371	      1.07957212	     -0.18050968	      2.75671243	      7.89621804	     -2.32065933	    -14.61836668	      9.95500296	     -4.96811372	     16.84768376	     -5.24541772	      2.39535114	    -62.09243346	      0.55444008	      3.26889219	     -8.38982095	      2.07279409	     -3.63692564
      3.01000000	      2.79678472	     -4.06194880	      2.50063312	     -0.70496445	      1.08008149	     -0.18003171	      2.11916892	      7.69760267	     -2.14367683	    -14.37691796	     10.20823990	     -4.97636215	     17.66809685	     -5.05028929	      2.14257351	    -61.27800175	      1.61365141	      2.56251934	     -8.47036665	      1.74537992	     -3.31536702
